<svg width="50" height="50" viewBox="0 0 50 50" fill="none" xmlns="http://www.w3.org/2000/svg">
<path d="M24.0339 47.4603C36.7427 47.4603 47.0452 37.3639 47.0452 24.9093C47.0452 12.4547 36.7427 2.35828 24.0339 2.35828C11.3252 2.35828 1.02271 12.4547 1.02271 24.9093C1.02271 37.3639 11.3252 47.4603 24.0339 47.4603Z" fill="#3F65A6"/>
<path d="M21.7732 17.4921C21.7732 18.144 21.7732 21.0509 21.7732 21.0509H19.1125V25.4026H21.7732V37.33H27.2384V25.3938H30.9058C30.9058 25.3938 31.2474 23.306 31.4182 21.0245C30.9418 21.0245 27.2654 21.0245 27.2654 21.0245C27.2654 21.0245 27.2654 18.4963 27.2654 18.0471C27.2654 17.6066 27.8586 17.0076 28.4519 17.0076C29.0361 17.0076 30.2766 17.0076 31.4272 17.0076C31.4272 16.4174 31.4272 14.3649 31.4272 12.4798C29.8901 12.4798 28.1463 12.4798 27.3822 12.4798C21.6384 12.4886 21.7732 16.8402 21.7732 17.4921Z" fill="white"/>
</svg>
