<svg width="51" height="50" viewBox="0 0 51 50" fill="none" xmlns="http://www.w3.org/2000/svg">
<g clip-path="url(#clip0_156_1141)">
<path d="M4.88025 14.5371C6.37691 11.4183 8.49156 8.78223 11.1566 6.59034C14.7679 3.60667 18.9103 1.81067 23.5548 1.26029C29.0103 0.613343 34.1376 1.64652 38.8787 4.48536C40.0567 5.19024 41.1575 5.99168 42.21 6.86071C42.4707 7.07314 42.4417 7.19867 42.2196 7.4111C40.0663 9.55471 37.9131 11.6983 35.7791 13.8612C35.5281 14.1123 35.3929 14.093 35.1225 13.8902C28.8655 9.07191 19.7407 10.3755 15.0769 16.7484C14.2561 17.8684 13.5899 19.0754 13.1264 20.3886C13.0878 20.5045 13.0105 20.6107 12.9526 20.7266C11.707 19.7803 10.4517 18.834 9.21575 17.8781C7.76736 16.7677 6.31898 15.6572 4.88025 14.5371Z" fill="#E94335"/>
<path d="M12.9526 29.7838C13.3678 30.7011 13.7154 31.6571 14.2368 32.5164C16.4287 36.1084 19.5572 38.4162 23.6803 39.2369C27.3978 39.9804 30.9705 39.4783 34.3018 37.6147C34.4177 37.5568 34.5335 37.4989 34.6397 37.4409C34.6977 37.4989 34.746 37.5665 34.8039 37.6147C37.2951 39.5459 39.796 41.4771 42.2872 43.4083C41.0899 44.596 39.7284 45.5519 38.28 46.3823C34.0797 48.777 29.5318 49.7426 24.7424 49.3756C18.7751 48.9121 13.6285 46.5561 9.37991 42.3075C7.51632 40.4439 5.98103 38.3389 4.87061 35.9346C5.90379 35.1428 6.93697 34.3607 7.97015 33.5689C9.63096 32.304 11.2918 31.0487 12.9526 29.7838Z" fill="#34A853"/>
<path d="M42.2969 43.4083C39.8057 41.4771 37.3048 39.5459 34.8136 37.6147C34.7556 37.5664 34.6977 37.4989 34.6494 37.4409C35.5088 36.7747 36.3875 36.1277 37.0924 35.278C38.2704 33.8682 39.0525 32.275 39.4581 30.4887C39.5063 30.2666 39.4677 30.1893 39.2456 30.199C39.1298 30.2087 39.0235 30.199 38.9077 30.199C34.9681 30.199 31.0188 30.1893 27.0792 30.2087C26.6447 30.2087 26.5481 30.0928 26.5578 29.6776C26.5771 26.8774 26.5771 24.0772 26.5578 21.2769C26.5578 20.9197 26.6543 20.8231 27.0116 20.8231C34.2342 20.8328 41.4568 20.8328 48.6891 20.8231C48.9981 20.8231 49.1236 20.9004 49.2009 21.2287C49.7899 23.884 49.7512 26.5491 49.394 29.2334C49.1043 31.377 48.5829 33.453 47.7814 35.4615C46.5938 38.4258 44.846 41.0136 42.5479 43.2345C42.461 43.302 42.3741 43.3503 42.2969 43.4083Z" fill="#4285F3"/>
<path d="M12.9526 29.7838C11.2918 31.0487 9.63096 32.304 7.97015 33.5689C6.93697 34.3511 5.90379 35.1428 4.87061 35.9346C4.06917 34.4476 3.54775 32.8737 3.12289 31.2515C2.31179 28.1134 2.18627 24.9269 2.63044 21.7308C2.97805 19.2203 3.70224 16.8063 4.87061 14.5468C6.31899 15.6572 7.75772 16.7773 9.2061 17.8878C10.4517 18.8437 11.6973 19.79 12.9429 20.7362C12.7305 21.7694 12.4312 22.7833 12.3346 23.8454C12.1608 25.7766 12.3443 27.6595 12.8947 29.5135C12.9333 29.5907 12.9429 29.6873 12.9526 29.7838Z" fill="#FABB06"/>
</g>
<defs>
<clipPath id="clip0_156_1141">
<rect width="49.4382" height="49.4382" fill="white" transform="translate(0.786133 0.449219)"/>
</clipPath>
</defs>
</svg>
